<?xml version="1.0" encoding="UTF-8" standalone="no"?><!DOCTYPE svg PUBLIC "-//W3C//DTD SVG 1.1//EN" "http://www.w3.org/Graphics/SVG/1.1/DTD/svg11.dtd"><svg width="100%" height="100%" viewBox="0 0 166 74" version="1.1" xmlns="http://www.w3.org/2000/svg" xmlns:xlink="http://www.w3.org/1999/xlink" xml:space="preserve" style="fill-rule:evenodd;clip-rule:evenodd;stroke-linejoin:round;stroke-miterlimit:1.5;"><g><g><path d="M49,56l0.896,0l0,7.661l0.047,0c0.173,-0.496 0.416,-0.93 0.73,-1.301c0.315,-0.372 0.676,-0.686 1.085,-0.943c0.408,-0.256 0.848,-0.446 1.32,-0.57c0.471,-0.124 0.958,-0.186 1.461,-0.186c0.896,0 1.67,0.165 2.322,0.496c0.652,0.331 1.198,0.785 1.638,1.364c0.44,0.578 0.766,1.252 0.978,2.02c0.212,0.769 0.318,1.599 0.318,2.492c0,1.521 -0.196,2.74 -0.589,3.657c-0.393,0.917 -0.864,1.62 -1.414,2.108c-0.55,0.487 -1.124,0.809 -1.721,0.966c-0.597,0.157 -1.108,0.236 -1.532,0.236c-0.801,0 -1.481,-0.132 -2.039,-0.397c-0.558,-0.264 -1.017,-0.574 -1.379,-0.929c-0.361,-0.356 -0.636,-0.707 -0.825,-1.054c-0.188,-0.347 -0.306,-0.603 -0.353,-0.769l-0.047,0l0,2.851l-0.896,0l0,-17.702Zm5.539,17.182c0.801,0 1.477,-0.182 2.027,-0.546c0.55,-0.363 0.998,-0.838 1.344,-1.425c0.345,-0.587 0.597,-1.248 0.754,-1.984c0.157,-0.735 0.235,-1.467 0.235,-2.194c0,-0.711 -0.09,-1.397 -0.271,-2.058c-0.18,-0.661 -0.455,-1.252 -0.825,-1.773c-0.369,-0.52 -0.824,-0.938 -1.367,-1.252c-0.542,-0.314 -1.174,-0.471 -1.897,-0.471c-0.786,0 -1.469,0.141 -2.051,0.422c-0.581,0.281 -1.06,0.669 -1.437,1.165c-0.378,0.496 -0.66,1.083 -0.849,1.76c-0.188,0.678 -0.283,1.414 -0.283,2.207c0,0.777 0.087,1.537 0.26,2.281c0.172,0.744 0.443,1.401 0.813,1.971c0.369,0.57 0.844,1.029 1.426,1.376c0.581,0.347 1.288,0.521 2.121,0.521Z" style="fill:#546e7a;fill-rule:nonzero;"/><path d="M64.863,67.331c0,-0.91 0.122,-1.765 0.365,-2.567c0.244,-0.801 0.601,-1.508 1.073,-2.119c0.471,-0.612 1.052,-1.095 1.744,-1.451c0.691,-0.355 1.485,-0.533 2.38,-0.533c0.896,0 1.69,0.178 2.381,0.533c0.691,0.356 1.273,0.839 1.744,1.451c0.471,0.611 0.829,1.318 1.073,2.119c0.243,0.802 0.365,1.657 0.365,2.567c0,0.909 -0.122,1.768 -0.365,2.578c-0.244,0.81 -0.602,1.517 -1.073,2.12c-0.471,0.603 -1.053,1.083 -1.744,1.438c-0.691,0.355 -1.485,0.533 -2.381,0.533c-0.895,0 -1.689,-0.178 -2.38,-0.533c-0.692,-0.355 -1.273,-0.835 -1.744,-1.438c-0.472,-0.603 -0.829,-1.31 -1.073,-2.12c-0.243,-0.81 -0.365,-1.669 -0.365,-2.578Zm0.895,0c0,0.76 0.103,1.491 0.307,2.194c0.204,0.702 0.503,1.326 0.895,1.872c0.393,0.545 0.88,0.979 1.462,1.301c0.581,0.323 1.249,0.484 2.003,0.484c0.755,0 1.422,-0.161 2.004,-0.484c0.581,-0.322 1.068,-0.756 1.461,-1.301c0.393,-0.546 0.692,-1.17 0.896,-1.872c0.204,-0.703 0.306,-1.434 0.306,-2.194c0,-0.761 -0.102,-1.492 -0.306,-2.195c-0.204,-0.702 -0.503,-1.326 -0.896,-1.872c-0.393,-0.545 -0.88,-0.979 -1.461,-1.301c-0.582,-0.323 -1.249,-0.484 -2.004,-0.484c-0.754,0 -1.422,0.161 -2.003,0.484c-0.582,0.322 -1.069,0.756 -1.462,1.301c-0.392,0.546 -0.691,1.17 -0.895,1.872c-0.204,0.703 -0.307,1.434 -0.307,2.195Z" style="fill:#546e7a;fill-rule:nonzero;"/><path d="M89.659,71.174l-0.048,0c-0.141,0.38 -0.345,0.739 -0.612,1.078c-0.268,0.339 -0.594,0.641 -0.979,0.905c-0.385,0.264 -0.821,0.471 -1.308,0.62c-0.487,0.149 -1.021,0.223 -1.602,0.223c-1.289,0 -2.287,-0.293 -2.994,-0.88c-0.707,-0.587 -1.061,-1.492 -1.061,-2.715c0,-0.744 0.142,-1.351 0.425,-1.822c0.283,-0.471 0.64,-0.843 1.072,-1.116c0.432,-0.273 0.912,-0.467 1.438,-0.583c0.526,-0.115 1.033,-0.198 1.52,-0.248l1.391,-0.124c0.644,-0.049 1.151,-0.128 1.52,-0.235c0.369,-0.108 0.648,-0.256 0.837,-0.446c0.188,-0.191 0.306,-0.434 0.353,-0.732c0.048,-0.297 0.071,-0.669 0.071,-1.116c0,-0.347 -0.063,-0.669 -0.188,-0.966c-0.126,-0.298 -0.323,-0.562 -0.59,-0.794c-0.267,-0.231 -0.612,-0.413 -1.037,-0.545c-0.424,-0.133 -0.943,-0.199 -1.555,-0.199c-1.085,0 -1.961,0.281 -2.628,0.843c-0.668,0.562 -1.034,1.414 -1.096,2.554l-0.896,0c0.063,-1.405 0.491,-2.459 1.284,-3.161c0.794,-0.703 1.921,-1.054 3.383,-1.054c1.461,0 2.526,0.302 3.194,0.905c0.667,0.603 1.001,1.393 1.001,2.368l0,7.413c0,0.182 0.004,0.364 0.012,0.546c0.008,0.181 0.035,0.347 0.083,0.495c0.047,0.149 0.125,0.269 0.235,0.36c0.11,0.091 0.267,0.136 0.472,0.136c0.157,0 0.377,-0.024 0.66,-0.074l0,0.793c-0.236,0.066 -0.48,0.099 -0.731,0.099c-0.361,0 -0.648,-0.049 -0.86,-0.148c-0.213,-0.099 -0.374,-0.232 -0.484,-0.397c-0.11,-0.165 -0.184,-0.359 -0.223,-0.583c-0.04,-0.223 -0.059,-0.467 -0.059,-0.731l0,-0.669Zm0,-4.711c-0.22,0.281 -0.554,0.471 -1.002,0.57c-0.448,0.099 -0.947,0.174 -1.497,0.223l-1.508,0.149c-0.44,0.05 -0.88,0.12 -1.32,0.211c-0.44,0.091 -0.837,0.244 -1.191,0.458c-0.353,0.215 -0.64,0.509 -0.86,0.881c-0.22,0.371 -0.33,0.855 -0.33,1.45c0,0.942 0.283,1.64 0.849,2.095c0.565,0.455 1.343,0.682 2.333,0.682c1.021,0 1.831,-0.194 2.428,-0.583c0.597,-0.388 1.053,-0.835 1.367,-1.339c0.314,-0.504 0.515,-0.991 0.601,-1.462c0.086,-0.472 0.13,-0.79 0.13,-0.955l0,-2.38Z" style="fill:#546e7a;fill-rule:nonzero;"/><path d="M97.837,63.785l0.071,0c0.11,-0.413 0.31,-0.802 0.601,-1.165c0.291,-0.364 0.644,-0.678 1.061,-0.942c0.416,-0.265 0.88,-0.467 1.39,-0.608c0.511,-0.14 1.042,-0.202 1.591,-0.186l0,0.942c-0.471,-0.066 -1.009,-0.016 -1.614,0.149c-0.605,0.165 -1.183,0.529 -1.732,1.091c-0.22,0.248 -0.413,0.488 -0.578,0.719c-0.165,0.232 -0.302,0.488 -0.412,0.769c-0.11,0.281 -0.197,0.595 -0.26,0.942c-0.063,0.347 -0.102,0.76 -0.118,1.24l0,6.966l-0.895,0l0,-12.743l0.895,0l0,2.826Z" style="fill:#546e7a;fill-rule:nonzero;"/><path d="M116.104,70.975l-0.047,0c-0.503,1.008 -1.131,1.765 -1.885,2.269c-0.755,0.504 -1.674,0.756 -2.758,0.756c-0.912,0 -1.697,-0.182 -2.357,-0.545c-0.66,-0.364 -1.202,-0.852 -1.626,-1.463c-0.425,-0.612 -0.739,-1.318 -0.943,-2.12c-0.205,-0.802 -0.307,-1.641 -0.307,-2.517c0,-0.942 0.11,-1.822 0.33,-2.64c0.22,-0.818 0.554,-1.525 1.002,-2.12c0.448,-0.595 1.01,-1.066 1.685,-1.413c0.676,-0.347 1.469,-0.521 2.381,-0.521c0.487,0 0.966,0.07 1.438,0.211c0.471,0.14 0.907,0.343 1.308,0.607c0.4,0.265 0.75,0.595 1.049,0.992c0.298,0.397 0.526,0.843 0.683,1.339l0.047,0l0,-7.81l0.896,0l0,17.702l-0.896,0l0,-2.727Zm-4.502,2.207c0.77,0 1.434,-0.165 1.992,-0.496c0.558,-0.331 1.021,-0.769 1.391,-1.314c0.369,-0.546 0.644,-1.17 0.825,-1.872c0.18,-0.702 0.271,-1.417 0.271,-2.145c0,-0.743 -0.091,-1.467 -0.271,-2.169c-0.181,-0.703 -0.452,-1.331 -0.813,-1.884c-0.362,-0.554 -0.829,-0.996 -1.403,-1.327c-0.573,-0.33 -1.245,-0.496 -2.015,-0.496c-0.802,0 -1.485,0.161 -2.051,0.484c-0.565,0.322 -1.033,0.756 -1.402,1.301c-0.369,0.546 -0.637,1.174 -0.802,1.885c-0.165,0.711 -0.247,1.446 -0.247,2.206c0,0.744 0.09,1.467 0.271,2.17c0.181,0.702 0.456,1.326 0.825,1.872c0.369,0.545 0.837,0.979 1.402,1.301c0.566,0.323 1.242,0.484 2.027,0.484Z" style="fill:#546e7a;fill-rule:nonzero;"/></g></g><g><rect x="0" y="0" width="50" height="50" style="fill:#28c940;"/><path d="M13.24,29.659l7.347,-6.496l15.859,17.831l1.21,0l-16.352,-18.368l15.456,-13.62l-1.344,0l-22.176,19.444l0,-19.444l-0.896,0l0,31.988l0.896,0l0,-11.335Z" style="fill:#fff;fill-rule:nonzero;"/></g><g><rect x="116" y="0" width="50" height="50" style="fill:#ffbf2e;"/><path d="M129.061,9.902l11.469,0l0,31.092l0.896,0l0,-31.092l11.513,0l0,-0.896l-23.878,0l0,0.896Z" style="fill:#fff;fill-rule:nonzero;"/></g><g><rect x="58" y="0" width="50" height="50" style="fill:#ff6058;"/><path d="M72.562,40.994l0,-14.56l11.603,0c1.493,0 2.86,-0.187 4.099,-0.56c1.239,-0.374 2.307,-0.926 3.203,-1.658c0.896,-0.732 1.598,-1.643 2.106,-2.733c0.507,-1.09 0.761,-2.337 0.761,-3.741c0,-2.897 -0.851,-5.077 -2.553,-6.54c-1.703,-1.464 -4.092,-2.196 -7.168,-2.196l-12.947,0l0,31.988l0.896,0Zm0,-15.456l0,-15.636l12.051,0c2.986,0 5.204,0.672 6.653,2.016c1.448,1.344 2.172,3.286 2.172,5.824c0,1.255 -0.224,2.36 -0.672,3.316c-0.448,0.955 -1.067,1.769 -1.859,2.441c-0.791,0.672 -1.725,1.18 -2.8,1.523c-1.075,0.344 -2.24,0.516 -3.494,0.516l-12.051,0Z" style="fill:#fff;fill-rule:nonzero;"/></g><path d="M130,67l36,0" style="fill:none;stroke:#546e7a;stroke-width:0.8px;"/><path d="M0,67l36,0" style="fill:none;stroke:#607d8b;stroke-width:0.8px;"/></svg>